<svg version="1" xmlns="http://www.w3.org/2000/svg" width="205.333" height="205.333" viewBox="0 0 154.000000 154.000000"><path d="M73 2.9c0 1.1-.5 2.3-1 2.6-.6.4-.8 1.4-.5 2.4.2.9.1 3-.4 4.7-.5 1.7-.6 3.7-.1 4.3.9 1.5 4.7.6 8-2 1.5-1.1 1.8-1.7.8-1.3-1.5.5-1.8 0-1.8-2.2C78 6.7 76 1 74.5 1c-.8 0-1.5.9-1.5 1.9zM90.7 6.2c-1.7 6.5-2 10.5-.7 11.3 1.6 1 5-.5 5-2.1 0-.8.3-1.4.8-1.4 1 0 3.2-5 3.2-7.3 0-1.6-.5-1.8-2.9-1.4-2.4.5-2.8.3-2.4-1.2.3-1 0-2.2-.5-2.5-.6-.4-1.7 1.6-2.5 4.6zM54.2 7.6L51 11.2l3 4.1c1.6 2.3 3 4.9 3 6 0 2.8 3.3 1.7 4-1.3.3-1.4 0-3.6-.7-5S59 10.6 59 8.2c0-2.3-.3-4.2-.7-4.2-.5 0-2.3 1.7-4.1 3.6zM107.3 15.2c-1.4 1.6-2 3.9-2.2 7.3l-.1 5 4.5-4.7c2.5-2.6 4.5-5.4 4.5-6.2 0-1.8-1.6-2.1-2.5-.6-.3.5-1.1 1-1.8 1-.8 0-.8-.3.1-1.2.7-.7 1.2-1.6 1.2-2 0-1.5-1.6-.8-3.7 1.4zM34 18.3c0 .7.5 1.8 1.2 2.5.8.8.2 1-2.7.5-5.7-.9-4.1 1.6 3.5 5.4 3.5 1.8 6.4 3.2 6.4 3 .1-.1 1.2-1.4 2.5-2.9l2.4-2.7-2.4-2.1c-2.5-2.2-8.1-5-9.9-5-.5 0-1 .6-1 1.3zM119.7 25.6c-3.6 5.5-4.6 8.4-2.9 8.4 2.1 0 7-3.2 9-5.9 2.8-3.8 2.8-5.4.1-4.6-1.8.6-2 .4-1.4-1.4 1.2-3.8-1-2.2-4.8 3.5zM70.5 24.6C51 29.6 46.1 32.7 37.8 45 26.2 62.1 24.1 80.6 32 96c3.4 6.7 15.5 17.9 23.9 22.4 9.2 4.8 16.4 6.5 26.1 6.1 18-.7 36.1-10.4 44.4-23.8 2.4-3.9 4.6-12.8 4.6-18.5-.1-6.9-3.6-21.9-6-24.9-1.1-1.4-2-3-2-3.4 0-1.6-11.3-16.3-15.4-20.2-2.3-2-7.1-5.3-10.8-7.2-6.1-3.2-7.4-3.6-14-3.4-4 .1-9.5.8-12.3 1.5zm16 8.4c.3.5 1.7 1 3 1 3.2 0 8.3 3.1 7.8 4.7-.5 1.5 1.4 1.8 1.9.4.2-.5 2.1.3 4.3 1.8 16.9 11.5 21.3 42.1 8.8 60.4-3.5 5.1-14 11.2-22.8 13.3C74.9 118 64.1 115 51 104c-9.5-8.1-10.4-9.2-13.1-17.4-2.5-7.8-2.3-14.3.7-23.6l1.8-5.5.6 6.2c.4 5.1 1 6.7 3.5 9.3 4.1 4.3 9.7 7.1 15.5 7.6 4.1.4 5.4 0 9.6-2.9C75 74 79 68.8 79 65.6c-.1-3.7-3.8-10.6-5.7-10.6-1 0-3.3-1.4-5.1-3.1-6.7-6.3-16.5-5.8-23.4 1.1-4.4 4.4-4.7 4.2-1.4-1.4 2.1-3.6 6.8-8.6 11.7-12.3 4.7-3.7 29.9-8.7 31.4-6.3zM50 53.8c0 .4-1 1.3-2.2 2.1-2.3 1.4-2.3 1.4-.4-.8 2-2.2 2.6-2.5 2.6-1.3zm17.1 3.8c3.9 4.1 1.4 11.5-5 14.8-3.2 1.7-5.5.7-7.6-3.4-2.9-5.7-1-12.4 3.8-13.3 4.8-.9 6.4-.6 8.8 1.9zm7.1 10.6c-.2 1-.8 2.1-1.3 2.4-1.1.6-1.1-2.1-.2-5.5.6-2.3.7-2.3 1.3-.6.4 1.1.5 2.8.2 3.7zm-24.4 3.4c-1 1-2.8-.6-2.8-2.4 0-1.5.1-1.5 1.7.1.9.9 1.4 1.9 1.1 2.3zm74.8 28.2c-.9 1.7-2 3.4-2.6 3.7-.6.4-.1-1.2 1.1-3.5 1.2-2.2 2.3-3.9 2.6-3.6.2.2-.3 1.8-1.1 3.4zm-18.8 12.7c-2.3 2.1-5.9 4-9.5 5.1-3.2.9-6.4 1.9-7 2.1-.7.3-1.3.1-1.3-.5 0-.5 1.7-1.3 3.7-1.7 4.1-.7 10.5-3.7 14.2-6.6 3.9-3.1 3.9-2.1-.1 1.6z"/><path d="M90.8 54.1c-4.4 2.6-5.8 5.5-5.8 11.8 0 5.6 3.8 11.6 9.4 14.6 3 1.6 4 1.7 7.4.7 2.2-.7 4.9-1.2 6.2-1.2 1.2 0 3.8-1.6 5.7-3.5 3.4-3.4 3.5-3.7 3.1-9.7-.4-5.7-.7-6.3-4.7-9.9-2.4-2.2-5-3.9-5.9-3.9-1-.1-3.9-.3-6.7-.6-3.9-.3-5.8.1-8.7 1.7zM106 66.4c0 3.4-4.7 8.8-7.4 8.4-1.7-.2-2.2-1.1-2.4-4.8-.3-4 0-4.8 2.9-7.2 3.2-2.7 3.3-2.7 5.1-.8 1 1 1.8 3 1.8 4.4zm8-.6c0 2.4-.1 2.5-1.6 1-1-.9-1.4-2.4-1-3.3.9-2.3 2.6-.9 2.6 2.3zm-2.4 6.7c-.4 1.4-1.1 2.5-1.6 2.5-1 0-.4-4.3.8-6.5.9-1.5 1.4 1.4.8 4zM49.1 87.6C47.9 89.1 47 91 47 92c0 1.7 7.4 7 13.2 9.4 4.9 2 15.3 2.8 23.5 1.7 7.6-1 19.9-5.9 22.9-9.2.9-1.1 3-1.9 4.7-1.9 2.6 0 2.9-.3 2.3-2.3-.3-1.2-.6-2.5-.6-3 0-1.5-4.9-.6-6 1-1 1.7-1.2 1.6-2.6-.5-2.3-3.2-4.3-2.7-6 1.3-2.9 7-16.9 12.8-25.4 10.5-4-1.1-7.4-4.9-6.4-7.3.6-1.7-2.1-4.7-4.2-4.7-2.3 0-3.8 4.3-2.4 7 1 1.8.9 2.1-.1 1.8-.7-.2-1.6-1.7-2-3.2-.9-3.1-2.5-5.3-5-6.7-1.4-.7-2.2-.3-3.8 1.7zM73.1 108.4c.2.2 1.5.9 2.9 1.5 2.4 1.1 2.4 1.1.6-.3-1.6-1.3-4.9-2.4-3.5-1.2zM66 61.9c0 .5.5 1.3 1 1.6.6.3 1 .2 1-.4 0-.5-.4-1.3-1-1.6-.5-.3-1-.2-1 .4zM109.9 29c-1.3 1-1.9 1.9-1.3 2 .6 0 1.9-.9 2.9-2 2.3-2.6 1.4-2.6-1.6 0zM124.9 34.1l-2.4 2 2.8-1.7c1.5-.9 2.7-1.8 2.7-2 0-.8-.8-.4-3.1 1.7zM128.7 38.8c-.8 2.1-2.2 4.4-3.1 5.1-.9.8-1.6 1.7-1.6 2.2 0 1.7 3.6.8 8.3-2.1 4.8-3 6-5 3.1-5-1.1 0-1.4-.5-1-1.7.6-1.6.6-1.6-1.2 0-2.4 2.2-3.1 2.1-2.5-.3.9-3.4-.4-2.2-2 1.8zM17.3 40.1c.5 2 .3 2-4.5 1.4l-5.1-.7 1.9 2.5c2.3 3 6.8 5.7 11.2 6.7 2.7.7 3.7.4 5.2-1.3 2.6-2.8 2.5-3.4-.7-4.1-1.7-.4-3.5-1.9-4.5-3.6-2-3.5-4.3-4.1-3.5-.9zM134.5 53.6c-7.3 5-7.1 5.8 1.1 5.1 3.8-.3 7.7-.9 8.7-1.3 2.3-.9 1.6-2.8-1.1-3.2l-2.2-.3 2.1-1.8c2.1-1.7 2.1-1.7-.8-1.8-1.8-.1-4.6 1.1-7.8 3.3zM126.5 53c-.3.6.1.7.9.4 1.8-.7 2.1-1.4.7-1.4-.6 0-1.3.4-1.6 1zM6.4 63.1c-.3.6-.1 1.5.7 1.9.9.6.5 1.1-1.4 1.5-1.5.4-2.7 1.3-2.7 2 0 1.7 6.2 2.6 10.2 1.4 1.8-.5 5.4-.9 8-.9 2.7 0 4.8-.5 4.8-1 0-.6-.8-1-1.8-1s-4.6-1.1-8-2.5c-6.8-2.8-8.7-3-9.8-1.4zM136 68.7c-1.4.3-2.9.8-3.3 1.3-.9.8 3.7 3.9 9.1 6 4.4 1.7 6.7-.2 5.7-4.9-.6-2.9-.9-3.1-4.8-3-2.3.1-5.3.4-6.7.6zM141 79.4c0 .2.7.7 1.6 1 .8.3 1.2.2.9-.4-.6-1-2.5-1.4-2.5-.6zM14.5 86c-4.7.7-6.5 1.6-6.5 3.4 0 2 5.9 2.4 13 .8 5.8-1.3 6.1-1.5 3.8-2.6-3.6-1.9-5.9-2.2-10.3-1.6zM136 89.5c.8 2 .7 3.1-.1 4.2-1 1.1-.5 2 2.5 4.5 3 2.4 4.9 3.2 9 3.4 2.8.2 4.6.1 3.9-.2-.7-.3-.9-1.2-.6-2 .3-.9-.1-1.4-1.1-1.4-1.3 0-1.5-.4-.6-1.9 1.4-2.6 1.3-3.4-.4-2.8-.7.3-2.8-.8-4.5-2.4-1.8-1.6-3.8-2.9-4.6-2.9-.7 0-2.1-.3-2.9-.6-1.4-.5-1.5-.2-.6 2.1zM19.1 101c-2.9 1.6-6 3.5-6.7 4.1-2.1 1.7-1.7 3.2.7 2.6 1.5-.4 1.9-.2 1.5.8-1.2 3.2 1.7 2.4 6.4-1.7 3.1-2.7 4.9-5.1 5-6.6 0-2.8-.4-2.8-6.9.8zM133.4 107c0 1 .2 1.7.5 1.5.2-.3 1 0 1.8.6 2 1.7 1.6-.5-.5-2.4-1.6-1.5-1.8-1.5-1.8.3zM32.5 112.4c-2.4 1.3-13.5 12.7-13.5 13.8 0 1.1.8 1 3.1-.2 1.3-.8 1.9-.7 1.9 0 0 1.9 2.6-.2 7.9-6.3 4.6-5.2 6.6-8.8 4.2-7.3-.5.4-1.1.2-1.3-.2-.1-.4-1.2-.3-2.3.2zM129.7 112.6c-.3.3-.3 1.2 0 2s0 1.4-.6 1.4c-2.5 0-.8 2.9 4.8 8.2l5.9 5.6 2.1-2.8c1.9-2.7 1.9-2.9.3-3.4-.9-.3-3.7-3.1-6.1-6.1-4.3-5.4-5.2-6.1-6.4-4.9zM47.2 125.2c-1.9 1.9-2.2 2-2.2.5 0-3.3-2.9-1.5-8.2 5.1-2.3 2.9-2.3 3.1.8 2.8 1.5-.2 3.1-1 3.6-1.9 1.3-2.4 3.1-2.2 1.8.2-1.9 3.7-1 4.5 2 1.6 1.7-1.6 3.3-4.1 3.7-5.5.3-1.4 1-3.1 1.6-3.8 1.6-2.1-.7-1.3-3.1 1zM117.1 124.7c-.6 1.1-1.1 1.3-1.1.5 0-.7-.4-1-1-.7-1.4.9-1.3 7.6.2 7.2.6-.1 2 1.5 3 3.5 1.4 2.9 2.4 3.8 4.2 3.8 3.4 0 3.8-1.2 2-5-1.1-2-1.3-3.5-.7-4.1.7-.7 0-2.1-1.7-4-3.3-3.4-3.6-3.5-4.9-1.2zM100 126.9c0 .5-.9 1.1-2 1.4-1.6.4-2 1.3-1.9 3.9.1 1.8-.2 6.4-.5 10.3-.7 6.5-.6 6.9.8 5.1.9-1.1 1.4-2.7 1.1-3.5-.2-.9 0-2.3.5-3.1.9-1.3 1.1-1.3 2 0 .5.8 1 2.7 1 4.2 0 3.1 1.7 4.5 3.3 2.9.8-.8.8-1.1-.1-1.1-.7 0-1.2-1.1-1.2-2.5 0-1.7.8-2.9 2.5-3.7 1.4-.6 2.5-1.5 2.5-2s-.5-.6-1-.3c-1 .6-4.2-5.6-3.8-7.2.4-1.4-1.3-5.3-2.3-5.3-.5 0-.9.4-.9.9zM59.6 132c-1.4 2.2-2.6 4.4-2.6 5 0 .6-.7 2.2-1.6 3.6-1.6 2.3-1.5 2.6.1 4.4 2.7 3 5.2 2.5 6-1.1.4-1.7.4-3.3.1-3.6-.3-.4-.1-1.2.5-2 .6-.7.8-1.3.4-1.3-.3 0 .3-1.6 1.6-3.6 1.8-3 1.9-3.8.8-4.5-2.2-1.3-2.5-1.2-5.3 3.1zM106 132c0 .5 1 1.5 2.3 2.1 2.2 1.2 2.2 1.2.3-1-2.1-2.3-2.6-2.6-2.6-1.1zM76.7 134.7c-.4.3-.7 2.4-.7 4.5s-.7 5.5-1.5 7.5c-1.9 4.6-1.9 5 .5 5.6 1.1.3 2 .2 2-.2s1.6-1.3 3.5-2 3.5-1.7 3.5-2.2c0-.6-.4-.8-.9-.5-.5.3-1.1 0-1.4-.8-.8-1.9.3-5.6 1.6-5.6.8 0 .7-.4-.1-1.2-.7-.7-.8-1.7-.2-2.9 1.3-2.3-.5-3.5-2.6-1.8-1.2 1-1.7 1-2.3.1-.4-.7-1-.9-1.4-.5zM109 139.9c0 .5.9.7 2 .4 1.1-.3 2-.7 2-.9 0-.2-.9-.4-2-.4s-2 .4-2 .9z"/></svg>